<svg width="30" height="26" viewBox="0 0 30 26" fill="none" xmlns="http://www.w3.org/2000/svg">
<path d="M29.5307 4.17402C29.1287 3.67598 28.5305 3.39062 27.89 3.39062H5.02365L4.81945 1.92719C4.67484 0.890899 3.77672 0.109375 2.73029 0.109375H0.9375C0.419766 0.109375 0 0.529082 0 1.04688C0 1.56467 0.419766 1.98438 0.9375 1.98438H2.73029C2.84654 1.98438 2.94639 2.07121 2.96238 2.18635L3.2782 4.44977C3.27855 4.4524 3.2785 4.45498 3.27885 4.45762L5.11049 17.5826C5.11066 17.5837 5.11096 17.5848 5.11113 17.586L5.49299 20.3228C5.63766 21.3591 6.53578 22.1406 7.58221 22.1406H8.59875C8.49469 22.4341 8.4375 22.7495 8.4375 23.0781C8.4375 24.6289 9.6992 25.8906 11.25 25.8906C12.8008 25.8906 14.0625 24.6289 14.0625 23.0781C14.0625 22.7495 14.0053 22.4341 13.9012 22.1406H18.9113C18.8072 22.4341 18.75 22.7495 18.75 23.0781C18.75 24.6289 20.0117 25.8906 21.5625 25.8906C23.1133 25.8906 24.375 24.6289 24.375 23.0781C24.375 22.7495 24.3178 22.4341 24.2137 22.1406H26.25C26.7677 22.1406 27.1875 21.7209 27.1875 21.2031C27.1875 20.6854 26.7677 20.2656 26.25 20.2656H7.58221C7.46596 20.2656 7.36611 20.1788 7.35012 20.0637L7.11662 18.3906H25.5797C26.5676 18.3906 27.4348 17.6893 27.6428 16.723L29.9525 5.94238C30.0867 5.31602 29.9332 4.67207 29.5307 4.17402ZM28.1068 6.38693L26.2318 15.7619C26.1427 16.2076 25.7512 16.5157 25.3135 16.5157C25.2525 16.5157 25.1907 16.5098 25.1286 16.4974C24.6209 16.3959 24.2916 15.902 24.3932 15.3943L26.2682 6.01926C26.3697 5.51148 26.8637 5.18213 27.3713 5.28379C27.8791 5.38539 28.2083 5.87922 28.1068 6.38693Z" fill="#F9C846"/>
</svg>
