<svg width="47" height="43" viewBox="0 0 47 43" fill="none" xmlns="http://www.w3.org/2000/svg">
<path d="M43.2715 4.66245C40.8385 2.02364 37.5001 0.570312 33.8705 0.570312C31.1575 0.570312 28.6729 1.42804 26.4855 3.11947C25.3818 3.97325 24.3818 5.0178 23.5 6.23698C22.6186 5.01816 21.6182 3.97325 20.5141 3.11947C18.3271 1.42804 15.8425 0.570312 13.1295 0.570312C9.4999 0.570312 6.16115 2.02364 3.72817 4.66245C1.32424 7.27041 0 10.8333 0 14.6952C0 18.6701 1.4813 22.3086 4.66156 26.1461C7.50655 29.5788 11.5955 33.0635 16.3305 37.0987C17.9474 38.4767 19.7801 40.0387 21.6831 41.7025C22.1858 42.1428 22.8309 42.3852 23.5 42.3852C24.1688 42.3852 24.8142 42.1428 25.3162 41.7032C27.2192 40.039 29.053 38.4763 30.6706 37.0976C35.4049 33.0632 39.4938 29.5788 42.3388 26.1458C45.5191 22.3086 47 18.6701 47 14.6948C47 10.8333 45.6758 7.27041 43.2715 4.66245Z" fill="#F0544F"/>
</svg>
